# Blender v2.92.0 OBJ File: ''
# www.blender.org
o Cube_Cube.001
v -1.000000 1.000000 -1.000000
v -1.000000 -1.000000 -1.000000
v -1.000000 1.000000 1.000000
v -1.000000 -1.000000 1.000000
v 1.000000 1.000000 -1.000000
v 1.000000 -1.000000 -1.000000
v 1.000000 1.000000 1.000000
v 1.000000 -1.000000 1.000000
vt 1.003826 -2.017643
vt -0.003826 -1.009991
vt -0.003826 -2.017643
vt 1.003826 -1.009991
vt -0.003826 -0.002339
vt 1.003826 -0.002339
vt -0.003826 1.005313
vt 1.003826 1.005313
vt -0.003826 2.012965
vt -1.011478 1.005313
vt -1.011478 -0.002339
vt 2.011478 -0.002339
vt 1.003826 2.012965
vt 2.011478 1.005313
vn -1.0000 0.0000 0.0000
vn 0.0000 0.0000 1.0000
vn 1.0000 0.0000 0.0000
vn 0.0000 0.0000 -1.0000
vn 0.0000 1.0000 0.0000
vn 0.0000 -1.0000 0.0000
s off
f 2/1/1 3/2/1 1/3/1
f 4/4/2 7/5/2 3/2/2
f 8/6/3 5/7/3 7/5/3
f 6/8/4 1/9/4 5/7/4
f 7/5/5 1/10/5 3/11/5
f 4/12/6 6/8/6 8/6/6
f 2/1/1 4/4/1 3/2/1
f 4/4/2 8/6/2 7/5/2
f 8/6/3 6/8/3 5/7/3
f 6/8/4 2/13/4 1/9/4
f 7/5/5 5/7/5 1/10/5
f 4/12/6 2/14/6 6/8/6
